<?xml version="1.0" standalone="no"?>
<!DOCTYPE svg PUBLIC "-//W3C//DTD SVG 20010904//EN"
 "http://www.w3.org/TR/2001/REC-SVG-20010904/DTD/svg10.dtd">
<svg version="1.0" xmlns="http://www.w3.org/2000/svg"
 width="3001.000000pt" height="3000.000000pt" viewBox="0 0 3001.000000 3000.000000"
 preserveAspectRatio="xMidYMid meet">

<g transform="translate(0.000000,3000.000000) scale(0.100000,-0.100000)"
fill="#000000" stroke="none">
<path d="M14189 24194 l-814 -814 818 -817 817 -818 815 815 c448 448 814 817
813 820 -2 3 -370 371 -819 817 l-815 812 -815 -815z"/>
<path d="M12310 21969 c-159 -20 -347 -94 -486 -190 -98 -68 -240 -218 -303
-320 -233 -379 -222 -844 30 -1216 41 -61 425 -451 1753 -1781 l1701 -1702
1703 1702 c1527 1526 1710 1713 1768 1800 118 175 173 344 181 559 6 155 -6
263 -44 384 -133 421 -497 717 -943 767 -246 27 -520 -41 -731 -182 -43 -28
-374 -352 -996 -974 l-933 -931 -927 927 c-991 989 -990 988 -1167 1068 -188
84 -402 115 -606 89z"/>
<path d="M9283 19025 c-336 -61 -639 -291 -788 -599 -175 -362 -146 -774 78
-1111 25 -38 382 -403 971 -992 l931 -933 -931 -932 c-710 -712 -942 -950
-978 -1005 -246 -378 -245 -855 3 -1233 52 -80 201 -231 284 -288 383 -264
876 -264 1264 -1 61 41 453 428 1781 1753 l1702 1701 -1702 1703 c-1797 1798
-1766 1767 -1934 1847 -88 42 -189 74 -283 90 -101 18 -300 18 -398 0z"/>
<path d="M20313 19025 c-140 -25 -297 -90 -428 -178 -39 -26 -660 -639 -1771
-1750 l-1712 -1710 1710 -1706 c977 -975 1736 -1725 1772 -1749 371 -262 882
-263 1260 -2 86 59 235 209 287 290 249 379 250 854 3 1233 -36 55 -268 293
-978 1005 l-931 932 936 938 c579 579 949 958 971 992 291 452 240 1013 -127
1386 -173 177 -364 279 -594 319 -101 18 -300 18 -398 0z"/>
<path d="M6200 16205 l-815 -815 818 -818 817 -817 815 815 815 815 -818 818
-817 817 -815 -815z"/>
<path d="M22179 16204 l-814 -814 818 -817 817 -818 815 815 c448 448 814 817
813 820 -2 3 -370 371 -819 817 l-815 812 -815 -815z"/>
<path d="M14188 13136 l-807 -812 815 -815 814 -814 815 815 815 815 -812 812
c-447 447 -817 813 -823 812 -5 0 -373 -366 -817 -813z"/>
<path d="M12230 10921 c-291 -64 -538 -234 -697 -478 -240 -369 -240 -836 2
-1210 50 -78 249 -280 1766 -1798 l1709 -1710 1704 1705 c1854 1856 1769 1766
1856 1968 61 141 82 237 87 402 6 166 -8 264 -58 408 -119 339 -400 600 -751
698 -126 35 -360 44 -491 20 -152 -29 -310 -95 -437 -184 -40 -27 -420 -399
-987 -966 l-923 -921 -922 921 c-1002 1000 -992 991 -1188 1075 -152 66 -223
80 -415 85 -140 3 -185 1 -255 -15z"/>
</g>
</svg>
